<svg width="24" height="24" viewBox="0 0 24 24" fill="none" xmlns="http://www.w3.org/2000/svg">
<path d="M21.44 8.26017C21.38 7.03017 21.15 5.46018 19.84 4.16018C18.54 2.86018 16.97 2.62018 15.74 2.56018C14.24 2.47018 9.76 2.47018 8.26 2.56018C7.04 2.62018 5.47 2.85018 4.16 4.16018C2.86 5.46018 2.61999 7.03017 2.55999 8.26017C2.46999 9.76017 2.46999 14.2402 2.55999 15.7402C2.61999 16.9702 2.85 18.5402 4.16 19.8402C5.47 21.1402 7.04 21.3802 8.25 21.4402C9 21.4802 10.5 21.5002 11.99 21.5002C13.48 21.5002 14.97 21.4802 15.72 21.4402C16.94 21.3802 18.52 21.1502 19.82 19.8402C21.12 18.5402 21.36 16.9702 21.42 15.7402C21.51 14.2402 21.51 9.77017 21.42 8.26017H21.44ZM20.44 15.6802C20.36 17.2602 19.97 18.2802 19.13 19.1202C18.29 19.9602 17.26 20.3502 15.69 20.4302C14.21 20.5102 9.8 20.5102 8.32 20.4302C6.75 20.3502 5.72 19.9602 4.88 19.1202C4.04 18.2802 3.65 17.2502 3.57 15.6702C3.49 14.1902 3.49 9.78018 3.57 8.30018C3.65 6.72018 4.04 5.69018 4.88 4.86018C5.72 4.02018 6.74998 3.63018 8.32998 3.55018C9.06998 3.51018 10.54 3.49018 12.01 3.49018C13.48 3.49018 14.96 3.51018 15.7 3.55018C17.27 3.63018 18.3 4.02018 19.14 4.86018C19.98 5.70018 20.37 6.73018 20.45 8.30018C20.53 9.78018 20.53 14.1902 20.45 15.6702L20.44 15.6802ZM12 7.50018C9.52 7.50018 7.5 9.52018 7.5 12.0002C7.5 14.4802 9.52 16.5002 12 16.5002C14.48 16.5002 16.5 14.4802 16.5 12.0002C16.5 9.52018 14.48 7.50018 12 7.50018ZM12 15.5002C10.07 15.5002 8.5 13.9302 8.5 12.0002C8.5 10.0702 10.07 8.50018 12 8.50018C13.93 8.50018 15.5 10.0702 15.5 12.0002C15.5 13.9302 13.93 15.5002 12 15.5002ZM18.27 6.50018C18.27 6.91018 17.94 7.25018 17.52 7.25018C17.1 7.25018 16.77 6.91018 16.77 6.50018C16.77 6.09018 17.1 5.75018 17.52 5.75018C17.94 5.75018 18.27 6.09018 18.27 6.50018Z" fill="#F9F9F9"/>
</svg>
