<svg width="19" height="20" viewBox="0 0 19 20" fill="none" xmlns="http://www.w3.org/2000/svg">
<path d="M18.0248 13.318L15.3818 11.742C14.2148 11.046 12.7098 11.386 11.9548 12.513L11.0729 13.83C8.70693 12.733 6.76783 10.79 5.67083 8.41397L6.98285 7.54199C8.11285 6.79099 8.45683 5.28698 7.76483 4.11898L6.20086 1.47897C5.76886 0.74797 4.92178 0.370975 4.06878 0.539975C2.69378 0.814975 1.48278 1.65897 0.745785 2.85397C0.013785 4.04197 -0.18811 5.43199 0.17889 6.76599C1.84889 12.842 6.66288 17.653 12.7419 19.322C13.1769 19.441 13.6159 19.5 14.0529 19.5C14.9579 19.5 15.8498 19.247 16.6508 18.753C17.8448 18.016 18.6878 16.805 18.9628 15.43C19.1288 14.601 18.7528 13.752 18.0248 13.318ZM17.9819 15.233C17.7609 16.337 17.0849 17.31 16.1259 17.902C15.1749 18.488 14.065 18.648 13.008 18.358C7.26699 16.782 2.71998 12.239 1.14398 6.50097C0.850978 5.43797 1.01184 4.32899 1.59784 3.37899C2.18984 2.41999 3.16187 1.74197 4.28387 1.51797C4.34887 1.50497 4.41492 1.49798 4.47992 1.49798C4.82892 1.49798 5.16 1.68098 5.341 1.98898L6.90399 4.62799C7.32499 5.33799 7.11591 6.25198 6.42791 6.70898L4.76678 7.81399C4.56778 7.94699 4.49097 8.20197 4.58197 8.42297C5.79797 11.337 8.15897 13.704 11.061 14.918C11.284 15.011 11.5379 14.934 11.6689 14.735L12.7839 13.07C13.2439 12.384 14.1568 12.177 14.8688 12.601L17.5119 14.177C17.8769 14.394 18.0649 14.818 17.9819 15.233Z" fill="#F9F9F9"/>
</svg>
