<svg aria-hidden="true" style="position: absolute; width: 0; height: 0; overflow: hidden;" version="1.1" xmlns="http://www.w3.org/2000/svg" xmlns:xlink="http://www.w3.org/1999/xlink">
<defs>

<symbol id="icon-angle-up" viewBox="0 0 64 32">
<path d="M2.584 28.583l28-28c0.392-0.392 0.904-0.584 1.416-0.584s1.024 0.196 1.416 0.584l28 28c0.78 0.78 0.78 2.048 0 2.828s-2.048 0.78-2.828 0l-26.584-26.584-26.584 26.584c-0.78 0.78-2.048 0.78-2.828 0s-0.788-2.044-0.008-2.828z"></path>
</symbol>

<symbol id="icon-angle-down" viewBox="0 0 64 32">
<path d="M61.416 3.417l-28 28c-0.392 0.392-0.904 0.584-1.416 0.584s-1.024-0.196-1.416-0.584l-28-28c-0.78-0.78-0.78-2.048 0-2.828s2.048-0.78 2.828 0l26.584 26.584 26.584-26.584c0.78-0.78 2.048-0.78 2.828 0s0.788 2.044 0.008 2.828z"></path>
</symbol>

<symbol id="icon-envelope" viewBox="0 0 32 32">
<path fill="#f9f9f9" style="fill: var(--color1, #f9f9f9)" d="M24 6h-16c-3.053 0-4.667 1.613-4.667 4.667v12c0 3.053 1.613 4.667 4.667 4.667h16c3.053 0 4.667-1.613 4.667-4.667v-12c0-3.053-1.613-4.667-4.667-4.667zM27.333 22.667c0 2.305-1.028 3.333-3.333 3.333h-16c-2.305 0-3.333-1.028-3.333-3.333v-12c0-2.305 1.028-3.333 3.333-3.333h16c2.305 0 3.333 1.028 3.333 3.333v12zM23.872 11.608c0.216 0.297 0.15 0.715-0.147 0.931l-6.549 4.763c-0.352 0.256-0.764 0.384-1.176 0.384-0.413 0-0.824-0.128-1.176-0.384l-6.549-4.763c-0.299-0.216-0.363-0.633-0.147-0.931 0.216-0.299 0.635-0.363 0.931-0.147l6.55 4.763c0.235 0.169 0.549 0.171 0.784 0l6.55-4.763c0.297-0.216 0.715-0.152 0.931 0.147z"></path>
</symbol>

<symbol id="icon-facebook-f" viewBox="0 0 32 32">
<path fill="#f9f9f9" style="fill: var(--color1, #f9f9f9)" d="M20.773 8.653h1.893c0.373 0 0.667-0.293 0.667-0.667v-3.693c0-0.32-0.24-0.6-0.56-0.653-0.067 0-1.787-0.307-3.48-0.307-3.907 0-6.347 2.493-6.347 6.507v2.64h-2.293c-0.373 0-0.667 0.293-0.667 0.667v4.347c0 0.373 0.293 0.667 0.667 0.667h2.293v9.84c0 0.373 0.293 0.667 0.667 0.667h4.693c0.373 0 0.667-0.293 0.667-0.667v-9.84h2.84c0.333 0 0.613-0.24 0.653-0.56l0.667-4.347c0.027-0.187-0.027-0.387-0.147-0.533-0.133-0.147-0.307-0.227-0.507-0.227h-3.507v-2.147c0-1.133 0.587-1.68 1.787-1.68l0.013-0.013zM18.32 13.813h3.387l-0.467 3.013h-2.933c-0.373 0-0.667 0.293-0.667 0.667v9.84h-3.36v-9.84c0-0.373-0.293-0.667-0.667-0.667h-2.293v-3.013h2.293c0.373 0 0.667-0.293 0.667-0.667v-3.307c0-3.293 1.827-5.173 5.013-5.173 1.013 0 2.067 0.12 2.693 0.2v2.453h-1.227c-1.947 0-3.12 1.12-3.12 3.013v2.813c0 0.373 0.293 0.667 0.667 0.667h0.013z"></path>
</symbol>

<symbol id="icon-heart" viewBox="0 0 32 32">
<path fill="#f9f9f9" style="fill: var(--color1, #f9f9f9)" d="M26.795 7.133c-1.315-1.603-3.212-2.456-5.487-2.467-0.009 0-0.020 0-0.029 0-2.641 0-4.368 1.649-5.277 3.12-0.909-1.471-2.636-3.12-5.277-3.12-0.011 0-0.021 0-0.029 0-2.272 0.011-4.168 0.864-5.484 2.468-1.641 2.001-2.255 5.097-1.639 8.28 1.612 8.308 11.724 12.997 12.153 13.193 0.087 0.040 0.183 0.060 0.276 0.060s0.189-0.020 0.276-0.060c0.429-0.196 10.541-4.884 12.152-13.193 0.617-3.185 0.007-6.28-1.635-8.281zM27.119 15.16c-1.337 6.904-9.504 11.293-11.119 12.099-1.615-0.805-9.781-5.195-11.12-12.099-0.543-2.797-0.035-5.481 1.36-7.18 1.071-1.305 2.571-1.971 4.459-1.98 0.009 0 0.017 0 0.027 0 3.408 0 4.595 3.385 4.644 3.529 0.183 0.541 1.081 0.541 1.263 0 0.049-0.144 1.237-3.529 4.644-3.529 0.009 0 0.017 0 0.027 0 1.891 0.009 3.392 0.675 4.461 1.98 1.392 1.696 1.899 4.381 1.355 7.18z"></path>
</symbol>

<symbol id="icon-instagram" viewBox="0 0 32 32">
<path fill="#f9f9f9" style="fill: var(--color1, #f9f9f9)" d="M28.587 11.014c-0.080-1.64-0.387-3.733-2.133-5.467-1.733-1.733-3.827-2.053-5.467-2.133-2-0.12-7.973-0.12-9.973 0-1.627 0.080-3.72 0.387-5.467 2.133-1.733 1.733-2.053 3.827-2.133 5.467-0.12 2-0.12 7.973 0 9.973 0.080 1.64 0.387 3.733 2.133 5.467s3.84 2.053 5.453 2.133c1 0.053 3 0.080 4.987 0.080s3.973-0.027 4.973-0.080c1.627-0.080 3.733-0.387 5.467-2.133 1.733-1.733 2.053-3.827 2.133-5.467 0.12-2 0.12-7.96 0-9.973h0.027zM27.253 20.907c-0.107 2.107-0.627 3.467-1.747 4.587s-2.493 1.64-4.587 1.747c-1.973 0.107-7.853 0.107-9.827 0-2.093-0.107-3.467-0.627-4.587-1.747s-1.64-2.493-1.747-4.6c-0.107-1.973-0.107-7.853 0-9.827 0.107-2.107 0.627-3.48 1.747-4.587 1.12-1.12 2.493-1.64 4.6-1.747 0.987-0.053 2.947-0.080 4.907-0.080s3.933 0.027 4.92 0.080c2.093 0.107 3.467 0.627 4.587 1.747s1.64 2.493 1.747 4.587c0.107 1.973 0.107 7.853 0 9.827l-0.013 0.013zM16 10c-3.307 0-6 2.693-6 6s2.693 6 6 6c3.307 0 6-2.693 6-6s-2.693-6-6-6zM16 20.667c-2.573 0-4.667-2.093-4.667-4.667s2.093-4.667 4.667-4.667c2.573 0 4.667 2.093 4.667 4.667s-2.093 4.667-4.667 4.667zM24.36 8.667c0 0.547-0.44 1-1 1s-1-0.453-1-1c0-0.547 0.44-1 1-1s1 0.453 1 1z"></path>
</symbol>

<symbol id="icon-phone" viewBox="0 0 30 32">
<path fill="#f9f9f9" style="fill: var(--color1, #f9f9f9)" d="M28.84 21.309l-4.229-2.522c-1.867-1.114-4.275-0.57-5.483 1.234l-1.411 2.107c-3.786-1.755-6.888-4.864-8.643-8.666l2.099-1.395c1.808-1.202 2.358-3.608 1.251-5.477l-2.502-4.224c-0.691-1.17-2.047-1.773-3.411-1.502-2.2 0.44-4.138 1.79-5.317 3.702-1.171 1.901-1.494 4.125-0.907 6.259 2.672 9.722 10.374 17.419 20.101 20.090 0.696 0.19 1.398 0.285 2.098 0.285 1.448 0 2.875-0.405 4.157-1.195 1.91-1.179 3.259-3.117 3.699-5.317 0.266-1.326-0.336-2.685-1.501-3.379zM28.771 24.373c-0.354 1.766-1.435 3.323-2.97 4.27-1.522 0.938-3.297 1.194-4.989 0.73-9.186-2.522-16.461-9.79-18.982-18.971-0.469-1.701-0.211-3.475 0.726-4.995 0.947-1.534 2.502-2.619 4.298-2.978 0.104-0.021 0.21-0.032 0.314-0.032 0.558 0 1.088 0.293 1.378 0.786l2.501 4.222c0.674 1.136 0.339 2.598-0.762 3.33l-2.658 1.768c-0.318 0.213-0.441 0.621-0.296 0.974 1.946 4.662 5.723 8.45 10.366 10.392 0.357 0.149 0.763 0.026 0.973-0.293l1.784-2.664c0.736-1.098 2.197-1.429 3.336-0.75l4.229 2.522c0.584 0.347 0.885 1.026 0.752 1.69z"></path>
</symbol>

<symbol id="icon-search" viewBox="0 0 32 32">
<path fill="#f9f9f9" style="fill: var(--color1, #f9f9f9)" d="M28.472 27.528l-5.345-5.345c1.781-2.003 2.875-4.631 2.875-7.516 0-6.249-5.084-11.333-11.333-11.333s-11.333 5.084-11.333 11.333c0 6.249 5.084 11.333 11.333 11.333 2.885 0 5.513-1.093 7.516-2.875l5.345 5.345c0.131 0.131 0.301 0.195 0.472 0.195s0.341-0.065 0.472-0.195c0.259-0.26 0.259-0.681-0.001-0.943zM4.667 14.667c0-5.513 4.485-10 10-10s10 4.487 10 10c0 5.513-4.485 10-10 10s-10-4.487-10-10z"></path>
</symbol>

<symbol id="icon-shopping-cart" viewBox="0 0 32 32">
<path fill="#f9f9f9" style="fill: var(--color1, #f9f9f9)" d="M13.333 28c0 0.736-0.593 1.333-1.327 1.333-0.731 0-1.34-0.597-1.34-1.333s0.58-1.333 1.313-1.333h0.027c0.733 0 1.327 0.597 1.327 1.333zM22.673 26.667h-0.027c-0.733 0-1.313 0.597-1.313 1.333s0.609 1.333 1.34 1.333c0.733 0 1.327-0.597 1.327-1.333s-0.593-1.333-1.327-1.333zM28.612 11.263l-1.353 8.227c-0.345 1.905-1.16 3.843-4.592 3.843h-11.021c-1.648 0-3.067-1.231-3.3-2.861l-2.013-14.087c-0.139-0.979-0.991-1.717-1.979-1.717h-0.353c-0.368 0-0.667-0.299-0.667-0.667s0.299-0.667 0.667-0.667h0.355c1.648 0 3.067 1.231 3.3 2.861l0.163 1.139h17.516c0.992 0 1.924 0.436 2.56 1.197 0.635 0.761 0.896 1.757 0.719 2.732zM26.153 18h-8.82c-0.368 0-0.667-0.299-0.667-0.667s0.299-0.667 0.667-0.667h9.039l0.925-5.632c0.108-0.596-0.049-1.193-0.429-1.649-0.381-0.457-0.941-0.719-1.536-0.719h-17.325l1.66 11.616c0.139 0.979 0.991 1.717 1.979 1.717h11.021c2.339 0 2.957-0.963 3.279-2.737l0.208-1.263z"></path>
</symbol>

<symbol id="icon-user" viewBox="0 0 32 32">
<path fill="#f9f9f9" style="fill: var(--color1, #f9f9f9)" d="M16.012 14c2.941 0 5.333-2.392 5.333-5.333s-2.392-5.333-5.333-5.333c-2.941 0-5.333 2.392-5.333 5.333s2.392 5.333 5.333 5.333zM16.012 4.667c2.205 0 4 1.795 4 4s-1.795 4-4 4c-2.205 0-4-1.795-4-4s1.793-4 4-4zM18.667 16.667h-5.333c-5.413 0-7.333 3.964-7.333 7.359 0 3.036 1.615 4.641 4.671 4.641h10.658c3.056 0 4.671-1.605 4.671-4.641 0-3.395-1.92-7.359-7.333-7.359zM21.329 27.333h-10.658c-2.308 0-3.337-1.020-3.337-3.308 0-1.413 0.432-6.025 6-6.025h5.333c5.711 0 6 5.019 6 6.025 0 2.288-1.028 3.308-3.337 3.308z"></path>
</symbol>

<symbol id="icon-arrow-left" viewBox="0 0 80 32">
<path fill="#195163" style="fill: var(--color1, #195163)" d="M71.666 16c0 0.368-0.747 0.667-1.667 0.667h-55.977l20.487 8.195c0.65 0.26 0.65 0.683 0 0.943-0.327 0.131-0.753 0.195-1.18 0.195s-0.853-0.065-1.18-0.195l-23.333-9.333c-0.153-0.061-0.276-0.136-0.36-0.217-0.17-0.163-0.17-0.347 0-0.509 0.083-0.083 0.206-0.156 0.36-0.217l23.333-9.333c0.65-0.26 1.707-0.26 2.357 0s0.65 0.683 0 0.943l-20.487 8.195h55.98c0.92 0.003 1.667 0.301 1.667 0.669z"></path>
</symbol>

<symbol id="icon-arrow-right" viewBox="0 0 80 32">
<path fill="#195163" style="fill: var(--color1, #195163)" d="M71.177 16.472l-23.333 9.333c-0.327 0.131-0.753 0.195-1.18 0.195s-0.853-0.065-1.18-0.195c-0.65-0.26-0.65-0.683 0-0.943l20.487-8.195h-55.97c-0.92 0-1.667-0.299-1.667-0.667s0.747-0.667 1.667-0.667h55.977l-20.487-8.195c-0.65-0.26-0.65-0.683 0-0.943s1.707-0.26 2.357 0l23.333 9.333c0.153 0.061 0.276 0.136 0.36 0.217 0.17 0.163 0.17 0.347 0 0.509-0.087 0.079-0.21 0.153-0.363 0.215z"></path>
</symbol>

<symbol id="icon-angle-right" viewBox="0 0 18 32">
<path d="M16.708 16.708l-14 14c-0.196 0.196-0.452 0.292-0.708 0.292s-0.512-0.098-0.708-0.292c-0.39-0.39-0.39-1.024 0-1.414l13.292-13.292-13.292-13.292c-0.39-0.39-0.39-1.024 0-1.414s1.024-0.39 1.414 0l14 14c0.392 0.388 0.392 1.020 0.002 1.412z"></path>
</symbol>

<symbol id="icon-check" viewBox="0 0 43 32">
<path d="M40.944 3.611l-26.667 26.667c-0.251 0.251-0.589 0.389-0.944 0.389-0.301-0.032-0.699-0.144-0.949-0.397l-10.667-10.832c-0.515-0.525-0.509-1.368 0.016-1.885 0.523-0.517 1.368-0.509 1.885 0.013l9.723 9.875 25.717-25.717c0.52-0.52 1.365-0.52 1.885 0s0.52 1.365 0 1.888z"></path>
</symbol>

<symbol id="icon-star" viewBox="0 0 35 32">
<path d="M17.455 0l3.899 12.089 12.702-0.028-10.292 7.443 3.951 12.071-10.259-7.488-10.26 7.488 3.951-12.071-10.292-7.443 12.702 0.028 3.899-12.089z"></path>
</symbol>

</defs>
</svg>
