<svg aria-hidden="true" style="position: absolute; width: 0; height: 0; overflow: hidden;" version="1.1" xmlns="http://www.w3.org/2000/svg" xmlns:xlink="http://www.w3.org/1999/xlink">
<defs>
<symbol id="icon-left" viewBox="0 0 80 32">
<path fill="#195163" style="fill: var(--color1, #195163)" d="M71.666 16c0 0.368-0.747 0.667-1.667 0.667h-55.977l20.487 8.195c0.65 0.26 0.65 0.683 0 0.943-0.327 0.131-0.753 0.195-1.18 0.195s-0.853-0.065-1.18-0.195l-23.333-9.333c-0.153-0.061-0.276-0.136-0.36-0.217-0.17-0.163-0.17-0.347 0-0.509 0.083-0.083 0.206-0.156 0.36-0.217l23.333-9.333c0.65-0.26 1.707-0.26 2.357 0s0.65 0.683 0 0.943l-20.487 8.195h55.98c0.92 0.003 1.667 0.301 1.667 0.669z"></path>
</symbol>
<symbol id="icon-right" viewBox="0 0 80 32">
<path fill="#195163" style="fill: var(--color1, #195163)" d="M71.177 16.472l-23.333 9.333c-0.327 0.131-0.753 0.195-1.18 0.195s-0.853-0.065-1.18-0.195c-0.65-0.26-0.65-0.683 0-0.943l20.487-8.195h-55.97c-0.92 0-1.667-0.299-1.667-0.667s0.747-0.667 1.667-0.667h55.977l-20.487-8.195c-0.65-0.26-0.65-0.683 0-0.943s1.707-0.26 2.357 0l23.333 9.333c0.153 0.061 0.276 0.136 0.36 0.217 0.17 0.163 0.17 0.347 0 0.509-0.087 0.079-0.21 0.153-0.363 0.215z"></path>
</symbol>
</defs>
</svg>
